<svg id="visual" viewBox="0 0 900 600" width="900" height="600" xmlns="http://www.w3.org/2000/svg" xmlns:xlink="http://www.w3.org/1999/xlink" version="1.1"><rect x="0" y="0" width="900" height="600" fill="#FFFFFF"></rect><path d="M0 448L15 448C30 448 60 448 90 448C120 448 150 448 180 451C210 454 240 460 270 462.5C300 465 330 464 360 461.5C390 459 420 455 450 456.8C480 458.7 510 466.3 540 465.3C570 464.3 600 454.7 630 452.7C660 450.7 690 456.3 720 461.7C750 467 780 472 810 470.3C840 468.7 870 460.3 885 456.2L900 452L900 601L885 601C870 601 840 601 810 601C780 601 750 601 720 601C690 601 660 601 630 601C600 601 570 601 540 601C510 601 480 601 450 601C420 601 390 601 360 601C330 601 300 601 270 601C240 601 210 601 180 601C150 601 120 601 90 601C60 601 30 601 15 601L0 601Z" fill="#ff8800"></path><path d="M0 489L15 488.8C30 488.7 60 488.3 90 489.5C120 490.7 150 493.3 180 493C210 492.7 240 489.3 270 488.5C300 487.7 330 489.3 360 491.7C390 494 420 497 450 495.3C480 493.7 510 487.3 540 484C570 480.7 600 480.3 630 482.8C660 485.3 690 490.7 720 490.3C750 490 780 484 810 480.5C840 477 870 476 885 475.5L900 475L900 601L885 601C870 601 840 601 810 601C780 601 750 601 720 601C690 601 660 601 630 601C600 601 570 601 540 601C510 601 480 601 450 601C420 601 390 601 360 601C330 601 300 601 270 601C240 601 210 601 180 601C150 601 120 601 90 601C60 601 30 601 15 601L0 601Z" fill="#ffa653"></path><path d="M0 507L15 507.8C30 508.7 60 510.3 90 513.5C120 516.7 150 521.3 180 522C210 522.7 240 519.3 270 518.5C300 517.7 330 519.3 360 516.8C390 514.3 420 507.7 450 506.8C480 506 510 511 540 511.2C570 511.3 600 506.7 630 504.2C660 501.7 690 501.3 720 502.2C750 503 780 505 810 508.2C840 511.3 870 515.7 885 517.8L900 520L900 601L885 601C870 601 840 601 810 601C780 601 750 601 720 601C690 601 660 601 630 601C600 601 570 601 540 601C510 601 480 601 450 601C420 601 390 601 360 601C330 601 300 601 270 601C240 601 210 601 180 601C150 601 120 601 90 601C60 601 30 601 15 601L0 601Z" fill="#ffc38d"></path><path d="M0 549L15 548C30 547 60 545 90 543.7C120 542.3 150 541.7 180 543.2C210 544.7 240 548.3 270 546.8C300 545.3 330 538.7 360 537C390 535.3 420 538.7 450 540.5C480 542.3 510 542.7 540 540.7C570 538.7 600 534.3 630 532.3C660 530.3 690 530.7 720 531.5C750 532.3 780 533.7 810 535.3C840 537 870 539 885 540L900 541L900 601L885 601C870 601 840 601 810 601C780 601 750 601 720 601C690 601 660 601 630 601C600 601 570 601 540 601C510 601 480 601 450 601C420 601 390 601 360 601C330 601 300 601 270 601C240 601 210 601 180 601C150 601 120 601 90 601C60 601 30 601 15 601L0 601Z" fill="#ffe1c5"></path><path d="M0 572L15 569.5C30 567 60 562 90 563.2C120 564.3 150 571.7 180 574.7C210 577.7 240 576.3 270 576.7C300 577 330 579 360 576.5C390 574 420 567 450 565.8C480 564.7 510 569.3 540 570.5C570 571.7 600 569.3 630 566.7C660 564 690 561 720 560.2C750 559.3 780 560.7 810 561.5C840 562.3 870 562.7 885 562.8L900 563L900 601L885 601C870 601 840 601 810 601C780 601 750 601 720 601C690 601 660 601 630 601C600 601 570 601 540 601C510 601 480 601 450 601C420 601 390 601 360 601C330 601 300 601 270 601C240 601 210 601 180 601C150 601 120 601 90 601C60 601 30 601 15 601L0 601Z" fill="#ffffff"></path></svg>