<?xml version="1.0" encoding="UTF-8" standalone="no"?>
<!-- Created with Inkscape (http://www.inkscape.org/) -->

<svg
   width="210mm"
   height="297mm"
   viewBox="0 0 210 297"
   version="1.1"
   id="svg1"
   xml:space="preserve"
   inkscape:version="1.4 (e7c3feb1, 2024-10-09)"
   sodipodi:docname="logo2.0.svg"
   xmlns:inkscape="http://www.inkscape.org/namespaces/inkscape"
   xmlns:sodipodi="http://sodipodi.sourceforge.net/DTD/sodipodi-0.dtd"
   xmlns="http://www.w3.org/2000/svg"
   xmlns:svg="http://www.w3.org/2000/svg"><sodipodi:namedview
     id="namedview1"
     pagecolor="#ffffff"
     bordercolor="#000000"
     borderopacity="0.25"
     inkscape:showpageshadow="2"
     inkscape:pageopacity="0.0"
     inkscape:pagecheckerboard="0"
     inkscape:deskcolor="#d1d1d1"
     inkscape:document-units="mm"
     inkscape:zoom="0.88174152"
     inkscape:cx="372.55816"
     inkscape:cy="671.96563"
     inkscape:window-width="1440"
     inkscape:window-height="788"
     inkscape:window-x="0"
     inkscape:window-y="34"
     inkscape:window-maximized="1"
     inkscape:current-layer="layer1" /><defs
     id="defs1"><clipPath
       clipPathUnits="userSpaceOnUse"
       id="clipPath5"><path
         id="path5"
         style="fill:#df7d05;fill-opacity:1;stroke:#80b3ff;stroke-width:0.708509"
         d="M 134.02386,-0.4402832 V 32.449183 h -8.00571 v 66.009406 h 8.00571 V 110.67852 H 189.3564 V -0.4402832 Z" /></clipPath><clipPath
       clipPathUnits="userSpaceOnUse"
       id="clipPath6"><rect
         style="fill:#df7d05;fill-opacity:1;stroke:#80b3ff;stroke-width:0.7"
         id="rect7"
         width="63.120285"
         height="58.00843"
         x="121.79548"
         y="31.337889" /></clipPath></defs><g
     inkscape:label="Layer 1"
     inkscape:groupmode="layer"
     id="layer1"><path
       style="fill:#df7d05;fill-opacity:1"
       d="m 54.692937,211.9353 c -1.824219,-0.81078 -2.513542,-2.27068 -2.513542,-5.32338 0,-3.45128 1.580266,-5.30637 4.319189,-5.07034 2.582339,0.22252 3.588519,1.71542 3.601249,5.34326 0.007,1.99514 -0.0887,2.55286 -0.59041,3.43958 -0.97544,1.72411 -3.021821,2.40853 -4.816486,1.61088 z m 2.513542,-2.27234 c 0.443929,-0.44392 0.529167,-0.88194 0.529167,-2.71925 0,-2.65846 -0.394404,-3.43992 -1.67303,-3.31488 -1.105967,0.10815 -1.49316,0.9371 -1.49807,3.20726 -0.0038,1.73757 0.282023,2.74385 0.895605,3.15355 0.515941,0.34451 1.203827,0.21583 1.746328,-0.32668 z m 6.629184,2.27629 c -1.77129,-0.63994 -1.9879,-1.26217 -2.08837,-5.99916 l -0.0894,-4.21463 h 1.21387 1.21387 v 3.81756 c 0,4.11854 0.16355,4.64911 1.4331,4.64911 1.27242,0 1.47732,-0.65427 1.47732,-4.71719 v -3.74948 h 1.05833 1.05834 v 4.32995 c 0,4.92845 -0.15307,5.36924 -2.06324,5.94154 -1.27805,0.38291 -2.03172,0.36938 -3.21383,-0.0577 z m 38.884417,-0.079 c -1.25327,-0.64987 -2.05177,-1.94041 -2.26714,-3.66419 -0.36969,-2.95891 0.43562,-5.40927 2.04812,-6.2319 2.08382,-1.06309 4.50059,-0.32224 5.39023,1.65235 0.73097,1.6224 0.72052,5.28938 -0.0187,6.548 -1.12078,1.9084 -3.3363,2.63754 -5.15255,1.69574 z m 2.62581,-2.18249 c 0.63655,-0.63655 0.91234,-2.01601 0.74703,-3.73647 -0.20565,-2.1402 -1.60535,-3.06255 -2.74179,-1.80672 -0.41597,0.45966 -0.50126,0.95137 -0.48818,2.81433 0.0142,2.02635 0.0781,2.3078 0.62462,2.75031 0.77443,0.6271 1.21486,0.62201 1.85832,-0.0214 z m 38.56783,2.20487 -1.26671,-0.38935 0.17698,-0.98129 c 0.25182,-1.39616 0.2575,-1.39908 1.58079,-0.81372 1.5615,0.69072 2.76003,0.48673 2.76003,-0.46976 0,-0.54961 -0.27045,-0.77965 -1.65429,-1.40712 -2.27629,-1.03212 -2.71133,-1.57259 -2.71133,-3.36845 0,-1.25458 0.0983,-1.53493 0.72865,-2.07709 0.96758,-0.83229 2.32757,-1.05532 4.06461,-0.66659 1.29074,0.28886 1.42407,0.38529 1.42039,1.02741 -0.007,1.20009 -0.35008,1.50678 -1.26305,1.12862 -1.20968,-0.50107 -2.55098,-0.28458 -2.65235,0.42809 -0.0691,0.48596 0.22613,0.73917 1.76636,1.51482 2.19154,1.10364 2.68271,1.71159 2.68095,3.31836 -0.002,1.43029 -0.73576,2.44546 -2.08869,2.88806 -1.15907,0.37917 -1.97867,0.34864 -3.54234,-0.13199 z M 43.712728,206.88484 v -5.15938 h 2.39439 c 2.715596,0 3.817965,0.39727 4.249114,1.53128 0.387843,1.0201 0.06365,2.32591 -0.719006,2.89603 l -0.671903,0.48945 0.651769,0.34881 c 1.275213,0.68248 1.631581,2.63114 0.698185,3.81776 -0.693487,0.88163 -1.98638,1.2321 -4.552028,1.23395 l -2.050521,0.001 z m 4.250728,3.0334 c 0.327189,-0.17511 0.511773,-0.55346 0.511773,-1.04903 0,-0.85928 -0.596626,-1.32291 -1.702398,-1.32291 -0.638234,0 -0.678853,0.0791 -0.678853,1.32291 0,1.24377 0.04062,1.32292 0.678853,1.32292 0.373369,0 0.90915,-0.12325 1.190625,-0.27389 z m 0.114898,-5.28236 c 0,-0.8791 -0.05029,-0.9302 -0.992188,-1.00816 l -0.992188,-0.0821 v 1.09028 1.09028 l 0.992188,-0.0821 c 0.941898,-0.078 0.992188,-0.12905 0.992188,-1.00816 z m 24.473959,7.31975 c 0,-0.0647 -0.47625,-2.3319 -1.05833,-5.0383 -0.58209,-2.70639 -1.05834,-4.98173 -1.05834,-5.05629 0,-0.0746 0.52632,-0.13558 1.16961,-0.13558 1.32529,0 1.20724,-0.23927 1.76227,3.57188 0.5403,3.70999 0.61991,3.7258 1.29011,0.25613 0.33641,-1.7416 0.66791,-3.31538 0.73668,-3.49728 0.0697,-0.18433 0.56845,-0.33073 1.12675,-0.33073 0.56037,0 1.0551,0.14572 1.12288,0.33073 0.0666,0.1819 0.39629,1.67019 0.73256,3.30729 0.58779,2.86163 1.05498,3.83402 1.05498,2.19584 0,-0.4294 0.11169,-1.35213 0.2482,-2.05052 0.13651,-0.69839 0.3224,-1.83534 0.41308,-2.52657 l 0.16489,-1.25677 h 1.17945 c 1.08557,0 1.16903,0.0474 1.04844,0.59532 -0.0721,0.32742 -0.31872,1.54781 -0.54813,2.71198 -0.22942,1.16416 -0.59495,2.9501 -0.81229,3.96875 -0.21733,1.01864 -0.45146,2.11997 -0.52027,2.44739 -0.10861,0.51677 -0.29179,0.59531 -1.38842,0.59531 h -1.2633 l -0.34244,-1.65364 c -0.18834,-0.90951 -0.45103,-1.99884 -0.58374,-2.42073 -0.13272,-0.4219 -0.24131,-1.10651 -0.24131,-1.52136 0,-0.41485 -0.11906,-0.75427 -0.26458,-0.75427 -0.14552,0 -0.26868,0.26789 -0.27369,0.59532 -0.005,0.32742 -0.27534,1.7264 -0.60073,3.10885 l -0.59163,2.51354 -1.25135,0.0806 c -0.68824,0.0444 -1.25135,0.0277 -1.25135,-0.0369 z m 11.37708,-5.09558 v -5.18417 l 2.66916,0.0909 c 2.54535,0.0867 2.69874,0.12537 3.30729,0.83329 0.87569,1.01871 0.87002,2.51944 -0.0126,3.34867 l -0.6508,0.61139 0.78309,0.73151 c 0.61299,0.57262 0.78308,0.95931 0.78308,1.7803 0,2.11084 -1.43146,2.96804 -4.96093,2.97076 l -1.91823,0.001 z m 4.23334,2.80291 c 0.63698,-0.63698 0.64733,-0.77187 0.11729,-1.52862 -0.29003,-0.41407 -0.68142,-0.58804 -1.32292,-0.58804 h -0.91104 v 1.32291 c 0,1.29352 0.0176,1.32292 0.79375,1.32292 0.44097,0 1.02894,-0.23518 1.32292,-0.52917 z m -0.1323,-5.02708 c 0,-0.8791 -0.0503,-0.9302 -0.99218,-1.00816 l -0.99219,-0.0821 v 1.09028 1.09028 l 0.99219,-0.0821 c 0.9419,-0.078 0.99218,-0.12905 0.99218,-1.00816 z m 4.33306,6.94531 c -0.0247,-0.35038 -0.006,-6.45769 0.0288,-9.525 0.003,-0.23917 0.64466,-0.33045 2.31888,-0.32974 3.55809,0.002 4.751,0.9989 4.4949,3.75817 -0.0739,0.79586 -0.36185,1.56847 -0.79759,2.13975 l -0.68199,0.89414 0.52288,0.77066 c 0.28759,0.42387 0.75753,1.21715 1.04433,1.76286 l 0.52145,0.99218 h -1.28113 -1.28113 l -0.91315,-1.65364 c -0.50224,-0.90951 -1.08901,-1.65365 -1.30394,-1.65365 -0.29456,0 -0.41017,0.40715 -0.46955,1.65365 l -0.0788,1.65364 h -1.04571 c -0.80711,0 -1.05314,-0.10564 -1.07827,-0.46302 z m 4.19976,-5.158 c 0.51021,-0.4082 0.4013,-1.90601 -0.17662,-2.42902 -0.27904,-0.25253 -0.78506,-0.41981 -1.12448,-0.37174 -0.5473,0.0775 -0.62634,0.24924 -0.69853,1.51758 -0.055,0.96568 0.031,1.50078 0.26458,1.6476 0.37384,0.23495 1.20375,0.0606 1.73505,-0.36442 z m 13.471697,5.44464 c -0.097,-0.097 -0.17639,-2.41874 -0.17639,-5.15938 v -4.98299 h 3.04271 3.04271 v 0.91396 0.91395 l -1.78594,0.0782 -1.78594,0.0782 -0.0821,0.99219 -0.0821,0.99218 h 1.60347 1.60347 v 1.04513 1.04513 l -1.52135,0.0793 -1.52136,0.0794 -0.0801,0.95769 c -0.0921,1.10108 0.24351,1.28147 2.39517,1.28766 l 1.25677,0.004 v 0.92604 0.92604 h -2.86632 c -1.57648,0 -2.9457,-0.0794 -3.04271,-0.17638 z m 7.67292,0 c -0.097,-0.097 -0.17639,-2.41874 -0.17639,-5.15938 v -4.98299 h 2.34212 c 2.7148,0 3.80147,0.50751 4.60881,2.15245 0.49933,1.01738 0.64473,3.34963 0.31688,5.08284 -0.23718,1.25389 -1.59093,2.67569 -2.77265,2.91204 -1.12157,0.22431 -4.09291,0.2209 -4.31877,-0.005 z m 4.45622,-2.56828 c 1.07393,-1.63901 0.62521,-4.85795 -0.76553,-5.49161 -1.32328,-0.60292 -1.48583,-0.26722 -1.48583,3.0686 v 3.05101 h 0.91994 c 0.67624,0 1.02895,-0.16637 1.33142,-0.628 z m 4.36322,-2.40605 v -5.16804 h 2.91042 2.91042 v 0.92605 0.92604 h -1.7198 -1.71979 v 1.04513 1.04513 l 1.52136,0.0794 1.52135,0.0794 v 0.92604 0.92604 l -1.52135,0.0794 -1.52136,0.0794 v 1.01682 c 0,1.19734 0.2405,1.33802 2.28736,1.33802 h 1.45034 l -0.0829,0.8599 -0.0829,0.85989 -2.97657,0.0748 -2.97656,0.0748 z m 7.67292,-0.009 v -5.15938 l 2.3151,0.004 c 1.30981,0.002 2.59126,0.14583 2.95106,0.33073 1.10177,0.56623 1.7453,1.69814 1.7453,3.06985 0,1.15275 -0.18507,1.59309 -1.28434,3.05591 -0.13984,0.18609 0.13731,0.90329 0.72692,1.88112 0.52411,0.8692 0.95324,1.66967 0.95361,1.77881 3.8e-4,0.10914 -0.5218,0.19843 -1.16039,0.19843 -1.14203,0 -1.17876,-0.0282 -2.23938,-1.71979 -0.59306,-0.94588 -1.20168,-1.71979 -1.35247,-1.71979 -0.16104,0 -0.27416,0.70959 -0.27416,1.71979 v 1.71979 h -1.19063 -1.19062 z m 4.35239,-0.43104 c 0.37078,-0.33989 0.30542,-1.96792 -0.0985,-2.45465 -0.19244,-0.23188 -0.6925,-0.4216 -1.11125,-0.4216 -0.75173,0 -0.76135,0.0195 -0.76135,1.5434 0,0.84887 0.0772,1.62061 0.17157,1.71497 0.20569,0.2057 1.44555,-0.0576 1.79957,-0.38212 z m -58.900347,-6.71628 c -2.17787,-0.40915 -5.10219,-1.4221 -6.51977,-2.25836 -0.83855,-0.49468 -1.46997,-0.5162 -15.147398,-0.5162 H 43.712728 v -0.79375 -0.79375 h 3.571876 c 2.59859,0 3.571875,-0.0864 3.571875,-0.31699 0,-0.17435 -0.145383,-1.32252 -0.323073,-2.55148 -0.314517,-2.17531 -0.346715,-2.24437 -1.215779,-2.60748 -0.71874,-0.30031 -0.865724,-0.48627 -0.754248,-0.95425 0.590464,-2.47879 0.533068,-3.05443 -0.44733,-4.48646 -1.504489,-2.19753 -1.841377,-3.43783 -1.49051,-5.4875 0.330573,-1.93113 1.39178,-5.75898 1.816689,-6.55293 0.280803,-0.52468 1.322049,-0.85541 2.693149,-0.85541 0.805892,0 0.724793,0.2304 1.583219,-4.49791 0.95433,-5.25657 1.0089,-5.85051 0.622501,-6.77529 -0.446361,-1.0683 -0.567575,-1.10294 -0.890186,-0.25441 -0.191778,0.50442 -0.504026,0.68214 -1.446894,0.82353 -0.661287,0.0992 -1.606615,0.10446 -2.100728,0.0118 -1.16198,-0.21798 -1.619112,-1.25043 -1.617472,-3.65309 0.0016,-2.31786 0.292802,-2.61335 2.7487,-2.78907 1.565813,-0.11204 1.896866,-0.0635 2.035698,0.29826 0.245022,0.63852 0.991036,0.52527 1.667895,-0.25318 0.561338,-0.6456 0.689729,-0.67434 2.219198,-0.49683 3.438665,0.3991 6.362365,1.77246 8.255195,3.87774 1.60536,1.78555 1.7731,2.50185 0.77321,3.30192 -0.42228,0.3379 -0.87812,0.61495 -1.013,0.61567 -0.13487,7.3e-4 -0.85045,-0.41552 -1.59018,-0.92499 -2.29303,-1.57927 -3.19831,-1.65437 -3.68111,-0.30534 -0.0961,0.26847 -0.40373,0.54803 -0.683653,0.62123 -0.589732,0.15422 -0.658555,0.48191 -1.211816,5.76979 -0.545315,5.21194 -0.59646,4.87654 0.927713,6.08385 0.726516,0.57548 1.514626,1.4545 1.751356,1.95337 0.38668,0.81487 0.39217,1.10456 0.054,2.85106 -0.20702,1.06921 -0.34918,1.94402 -0.31592,1.94402 0.0333,0 0.82792,-1.1713 1.76591,-2.60289 2.34914,-3.58532 3.15291,-4.32361 5.79164,-5.31977 5.2362,-1.97675 6.49183,-2.50783 7.47117,-3.16001 0.57095,-0.38021 1.08536,-0.83556 1.14315,-1.01189 0.0578,-0.17633 -0.42965,-0.57195 -1.08321,-0.87916 -1.42931,-0.67185 -1.78859,-1.33903 -2.56745,-4.76773 -0.47106,-2.07369 -0.54135,-2.99468 -0.41282,-5.4096 0.0852,-1.60073 0.23019,-3.34752 0.32221,-3.88176 0.1629,-0.94572 0.13615,-0.98554 -1.01375,-1.50938 -1.75853,-0.8011 -2.85016,-1.92503 -2.85016,-2.93449 0,-0.4605 0.12867,-1.0777 0.28593,-1.37155 0.4393,-0.82085 2.29069,-1.53521 3.99583,-1.5418 1.46228,-0.006 1.53093,-0.0391 2.49566,-1.21643 1.17533,-1.43434 2.8068,-2.32241 5.09267,-2.77212 3.4165,-0.67216 7.68748,0.744 10.38803,3.44443 2.08394,2.08385 2.61271,3.22685 2.61271,5.64766 0,1.07549 -0.13405,2.33998 -0.29789,2.80997 -0.22171,0.63601 -0.22069,1.00133 0.004,1.42855 1.38054,2.62509 0.62015,4.88755 -2.44174,7.26517 -0.33518,0.26027 -0.43935,0.78091 -0.43935,2.19595 0,1.98033 0.3267,2.8945 1.38892,3.8865 0.69139,0.64568 5.61467,2.96568 6.298,2.96782 0.53934,0.002 4.740607,-2.03126 5.371967,-2.59942 0.27014,-0.24311 0.71663,-0.88375 0.99219,-1.42366 0.77599,-1.52043 0.60509,-4.86181 -0.26422,-5.16564 -1.14315,-0.39953 -2.1345,-1.4664 -2.6548,-2.85702 -0.683107,-1.82577 -0.685897,-2.3887 -0.0183,-3.69814 0.45847,-0.89925 0.48764,-1.16705 0.21506,-1.97417 -0.5592,-1.65583 -0.42039,-4.47769 0.28613,-5.81664 0.95041,-1.80114 3.34571,-4.0364 5.3184,-4.96304 4.67717,-2.19703 9.45836,-1.59667 12.2803,1.54201 1.10951,1.23404 1.22451,1.29241 2.54609,1.29241 2.83945,0 4.48819,1.0204 4.48819,2.77773 0,1.03542 -0.915,2.03373 -2.68704,2.9317 -0.88106,0.44646 -1.21005,0.76127 -1.14586,1.09645 0.0495,0.25859 0.22994,1.83938 0.40093,3.51287 0.28465,2.78596 0.26443,3.26168 -0.23964,5.63773 -0.81192,3.8272 -1.33475,4.84916 -2.81598,5.50438 -0.66911,0.29598 -1.17247,0.67829 -1.11857,0.84958 0.20691,0.65758 2.57369,1.94876 5.62179,3.06692 4.39455,1.61209 5.52649,2.22336 7.05054,3.80741 1.49805,1.55704 3.72191,4.67734 5.13694,7.20765 0.52521,0.93917 1.07924,1.70758 1.23116,1.70758 0.31759,0 0.16739,-1.37406 -0.43384,-3.96875 -0.21918,-0.94588 -0.40269,-2.3297 -0.4078,-3.07515 -0.009,-1.26321 0.0682,-1.42677 1.12998,-2.40552 0.6266,-0.57758 1.36965,-1.17907 1.65122,-1.33664 0.50247,-0.2812 0.50312,-0.32975 0.0354,-2.62157 -0.44224,-2.16689 -0.56867,-2.43036 -1.75533,-3.65799 -0.70332,-0.72761 -1.45852,-1.68168 -1.67822,-2.12015 -0.55259,-1.10288 -0.81037,-3.0702 -0.59258,-4.5225 0.33708,-2.24784 3.2506,-4.60214 5.69528,-4.60214 0.58367,0 1.06122,0.10919 1.06122,0.24264 0,0.13346 -0.23183,0.78348 -0.51517,1.44448 -0.28334,0.66101 -0.5899,1.60021 -0.68124,2.08712 -0.14668,0.78186 -0.0818,0.92369 0.55541,1.21402 0.39682,0.1808 0.80619,0.23374 0.90971,0.11763 0.10351,-0.11611 0.52093,-1.07431 0.92759,-2.12933 0.40666,-1.05503 0.87689,-1.91823 1.04495,-1.91823 0.96348,0 2.65555,2.94443 2.95733,5.14612 0.10995,0.8022 0.33775,1.3162 0.65968,1.4885 0.79512,0.42553 0.58517,1.11024 -1.09576,3.57358 -1.59084,2.33131 -1.76143,2.87896 -1.42334,4.56938 0.13539,0.67699 0.32248,0.85052 1.06767,0.99032 0.6143,0.11524 1.02151,0.39768 1.27215,0.88236 0.57844,1.11859 1.88385,5.26626 2.25957,7.17934 0.31461,1.60195 0.29616,1.87602 -0.23748,3.52783 -0.45388,1.40491 -0.54118,2.12172 -0.40498,3.32553 0.30522,2.69779 -0.67657,4.33035 -2.8093,4.67138 -0.96793,0.15478 -0.99667,0.19289 -1.29699,1.71938 -0.16892,0.8586 -0.23433,1.67889 -0.14535,1.82285 0.09,0.14558 1.38788,0.26176 2.92429,0.26176 h 2.76251 v 0.79375 0.79375 H 122.55917 94.513953 l -1.25738,0.90257 c -2.34639,1.68428 -3.73368,2.06574 -7.87197,2.16457 -2.46435,0.0589 -4.38301,-0.0391 -5.73233,-0.29258 z m 6.70891,-0.25084 c 2.6112,-0.68013 4.87024,-2.17187 7.494,-4.94859 1.01649,-1.07576 2.20302,-2.47475 2.63673,-3.10885 l 0.78856,-1.15292 -1.99602,-1.8822 c -2.0947,-1.97525 -4.07872,-3.12757 -6.2056,-3.60421 -1.93492,-0.43363 -2.57376,-0.1778 -3.66673,1.46834 -0.52446,0.78988 -0.95356,1.54574 -0.95356,1.67967 0,0.13393 0.51551,0.54562 1.14557,0.91486 1.1423,0.66943 1.93727,1.41138 1.73209,1.61656 -0.0595,0.0595 -1.11826,-0.1713 -2.35281,-0.51287 -1.23455,-0.34157 -3.73292,-1.03332 -5.55193,-1.53721 -5.88535,-1.63035 -9.15527,-2.27937 -11.85957,-2.3539 -1.88571,-0.052 -2.39782,0.22993 -4.12974,2.2733 -1.04518,1.23312 -1.05802,1.27228 -0.54421,1.6594 0.38889,0.293 0.94052,0.3598 2.11372,0.25598 l 1.5875,-0.14048 1.7198,1.67125 c 4.28578,4.16481 9.44455,7.06052 13.91047,7.80818 1.96607,0.32915 2.51404,0.31505 4.13173,-0.10631 z m -18.57137,-5.79415 -1.71979,-1.67352 -2.10053,-0.17471 c -1.32434,-0.11015 -2.16176,-0.0756 -2.26624,0.0934 -0.17248,0.27908 -1.73698,-2.388 -3.810784,-6.49642 l -1.208176,-2.39352 0.762113,-2.41099 c 0.419162,-1.32604 0.843477,-3.00258 0.942917,-3.72563 0.16796,-1.2212 0.121,-1.38277 -0.660715,-2.27309 -0.876497,-0.99828 -1.752578,-1.2427 -2.013844,-0.56185 -0.222784,0.58057 0.996371,2.86749 1.691145,3.1723 0.799084,0.35056 0.608497,0.77808 -0.391242,0.87762 -0.839558,0.0836 -1.119831,0.54661 -1.127492,1.86266 -0.002,0.34135 -0.17553,0.93666 -0.385651,1.32291 -0.212591,0.3908 -0.564952,2.50361 -0.794434,4.76355 -0.226818,2.2337 -0.478646,4.16847 -0.559618,4.29948 -0.08097,0.13102 -0.556915,0.23821 -1.05765,0.23821 -0.500735,0 -0.910427,0.0972 -0.910427,0.21599 0,0.49131 0.58648,3.33989 0.807104,3.92018 l 0.238132,0.62633 8.142482,-0.005 8.14249,-0.005 z m 60.693567,1.26442 c 0.39194,-1.02137 -0.0279,-14.34584 -0.52041,-16.51482 -0.0982,-0.43269 -0.0608,-0.56995 0.10819,-0.39688 0.99057,1.01439 2.22672,4.87384 2.5635,8.00365 0.0979,0.90951 0.22519,1.65365 0.28294,1.65365 0.26608,0 4.34096,-3.26535 4.34096,-3.47857 0,-0.13266 -0.97228,-1.6962 -2.16063,-3.47454 -2.78604,-4.16927 -5.3297,-6.72164 -7.5071,-7.53283 -2.29348,-0.85444 -2.39462,-0.80029 -1.48271,0.79375 0.98399,1.72003 1.4005,2.78854 1.14786,2.94468 -0.10603,0.0655 -0.83182,-0.17455 -1.61286,-0.53351 -2.29639,-1.05539 -2.81252,-1.07865 -3.66585,-0.16516 -0.40547,0.43406 -1.01871,1.3365 -1.36275,2.00542 l -0.62552,1.21622 -1.13402,-1.26131 c -0.62371,-0.69371 -1.62216,-1.59958 -2.21878,-2.01304 -1.33253,-0.92344 -1.57819,-0.83719 -4.02445,1.41298 -1.63324,1.50231 -2.34069,1.92779 -2.34069,1.40777 0,-0.60631 -5.07095,-7.65794 -5.67313,-7.88902 -0.1757,-0.0674 -0.90588,0.13134 -1.62264,0.44169 l -1.303187,0.56427 0.926037,0.69657 c 1.69922,1.27816 2.87023,2.66609 3.6628,4.34128 1.85072,3.91172 1.56614,8.14759 -0.89809,13.3678 -1.1586,2.45436 -1.47318,4.03471 -0.80314,4.03471 0.47555,0 1.33765,-0.77932 2.04881,-1.85208 0.50686,-0.76458 0.61548,-0.59329 0.88088,1.38906 l 0.16825,1.25677 h 11.33257 c 10.08974,0 11.35017,-0.0459 11.49316,-0.41851 z m 14.05603,-1.03669 c 0.61881,-2.48526 0.70731,-3.76314 0.31514,-4.54995 -0.20334,-0.40795 -0.51976,-1.78417 -0.70317,-3.05828 -0.18341,-1.27411 -0.4262,-2.37387 -0.53953,-2.44391 -0.20825,-0.12871 -1.18506,-3.10588 -1.44925,-4.4171 -0.11421,-0.56684 -0.3132,-0.7277 -0.98191,-0.79375 -1.09306,-0.10798 -1.20658,-0.52887 -0.25612,-0.94959 1.25681,-0.55632 2.15716,-3.37128 1.18102,-3.69252 -0.48863,-0.1608 -2.46578,1.76948 -2.46578,2.40734 0,0.31054 0.18087,1.39801 0.40193,2.4166 1.05106,4.84299 1.08182,4.44173 -0.53736,7.01136 -0.32093,0.50933 -1.28496,2.05714 -2.14227,3.43959 -1.21576,1.96045 -1.57729,2.38308 -1.64299,1.92064 -0.0463,-0.3261 0.17296,-1.31729 0.48729,-2.20264 0.31434,-0.88536 0.52242,-1.65885 0.4624,-1.71887 -0.06,-0.06 -0.90438,0.54684 -1.87636,1.34856 l -1.76722,1.4577 v 2.46362 c 0,1.35499 0.0817,2.54535 0.18161,2.64523 0.0999,0.0999 2.61646,0.1495 5.59239,0.11025 l 5.41079,-0.0714 z m -41.76968,-4.97202 c 1.86372,-2.49096 2.47609,-4.28737 2.47138,-7.24984 -0.003,-2.06676 -0.46139,-3.79044 -1.46051,-5.49529 -1.885967,-3.21817 -4.139597,-3.3899 -7.580387,-0.57764 -1.41317,1.15502 -4.8777,5.02273 -5.8667,6.54943 l -0.44703,0.69006 1.3949,0.16389 c 2.85547,0.33551 6.36552,2.68246 9.04397,6.04714 0.54341,0.68263 1.12827,1.18366 1.29968,1.1134 0.17141,-0.0703 0.686517,-0.62878 1.144697,-1.24115 z m 46.43192,0.62875 c 0.54045,-0.43851 0.61794,-0.71483 0.57503,-2.05052 -0.0782,-2.43317 -1.1424,-4.78387 -1.3519,-2.98609 -0.10688,0.91717 -1.60477,1.54537 -2.0947,0.87849 -0.17665,-0.24046 -0.36871,-0.56914 -0.42679,-0.73041 -0.0581,-0.16126 -0.19985,-0.20534 -0.31504,-0.098 -0.11518,0.10739 -0.0798,1.11879 0.0786,2.24756 0.23666,1.68653 0.41163,2.15867 0.9817,2.64903 0.84891,0.7302 1.72592,0.76108 2.55313,0.0899 z m -1.90424,-1.03989 c -0.45865,-0.3714 -0.55333,-0.64123 -0.4164,-1.18679 0.31351,-1.24912 2.01922,-0.80298 2.01922,0.52814 0,0.89918 -0.8662,1.25512 -1.60282,0.65865 z m -93.656605,-1.42953 c 0.166634,-1.05502 0.365467,-2.24575 0.441851,-2.64605 0.09876,-0.51756 0.01485,-0.77542 -0.290476,-0.89258 -0.236146,-0.0906 -0.486471,-0.10765 -0.556277,-0.0378 -0.06981,0.0698 -0.324243,1.22509 -0.565415,2.56731 -0.378591,2.107 -0.386802,2.47309 -0.06011,2.67983 0.649711,0.41116 0.71948,0.29804 1.030423,-1.67067 z m 9.799008,0.7213 c 0,-0.20457 -0.23813,-0.49939 -0.52917,-0.65515 -0.60745,-0.3251 -0.624,-0.28389 -0.26508,0.66016 0.26473,0.69628 0.79425,0.69294 0.79425,-0.005 z m 22.89763,-3.36713 c 4.09644,-6.27476 6.55168,-9.16968 9.48307,-11.18129 l 1.29216,-0.88672 -0.89695,-0.37477 c -2.18004,-0.91088 -2.906,-1.09667 -3.29698,-0.84378 -0.5095,0.32956 -3.53769,4.56978 -4.66475,6.53182 -0.47816,0.83241 -0.99594,1.51702 -1.15062,1.52135 -0.15467,0.004 -0.63092,-0.35751 -1.05833,-0.80409 -0.42741,-0.44658 -1.39625,-1.28993 -2.15299,-1.8741 -1.7177,-1.326 -1.95888,-1.26411 -4.34828,1.11583 l -1.81914,1.81194 -0.64177,-1.24534 c -0.78542,-1.5241 -1.86876,-2.70297 -2.47511,-2.69338 -0.24877,0.004 -1.25586,0.34996 -2.23797,0.76894 -0.98956,0.42217 -1.85347,0.65205 -1.93778,0.51565 -0.0837,-0.13538 0.32799,-1.13625 0.9148,-2.22415 0.58681,-1.08791 0.93866,-1.97801 0.78189,-1.97801 -0.15677,0 -1.07458,0.26736 -2.03957,0.59413 -2.58322,0.87476 -3.99203,2.41091 -7.6769,8.37079 -0.75426,1.21993 -1.33023,2.2592 -1.27995,2.30948 0.24465,0.24466 3.40545,2.21935 3.5524,2.21935 0.47826,0 1.13753,-0.97507 1.14581,-1.69466 0.0132,-1.14544 0.61142,-3.52668 1.24693,-4.96336 0.60678,-1.37171 1.22269,-1.95888 1.01847,-0.97092 -0.0702,0.33961 -0.20015,1.76372 -0.28877,3.16468 l -0.16113,2.54721 2.59327,0.1774 c 3.40781,0.23313 5.44966,0.6042 10.66306,1.93785 1.38245,0.35364 2.56315,0.69184 2.62378,0.75156 0.50503,0.49736 1.21814,-0.16301 2.81135,-2.60341 z m -34.776464,-1.86435 c -0.782348,-0.78235 0.06405,-0.9127 2.221541,-0.34212 1.496703,0.39582 1.984375,0.3062 1.984375,-0.36468 0,-0.34245 -0.485263,-0.61717 -1.852083,-1.04855 -1.018646,-0.32149 -1.852083,-0.69526 -1.852083,-0.83059 0,-0.33909 0.298798,-0.31233 2.097887,0.18786 1.717396,0.47748 2.400029,0.36914 2.400029,-0.38091 0,-0.52518 -0.548387,-0.8704 -2.248958,-1.41578 -0.582083,-0.18668 -1.293185,-0.4922 -1.580226,-0.67895 -0.505326,-0.32876 -0.50242,-0.33953 0.09157,-0.33953 0.337404,0 1.270086,0.19088 2.072627,0.42419 1.342654,0.39032 1.493432,0.38992 1.88832,-0.005 0.662232,-0.66223 0.104081,-1.2565 -1.836521,-1.95535 -0.931757,-0.33555 -1.813167,-0.73801 -1.958688,-0.89435 -0.262237,-0.28175 0.0043,-0.25998 2.645834,0.21614 0.914715,0.16487 0.926041,0.1555 0.926041,-0.76545 0,-1.12546 -0.202124,-1.22449 -2.928433,-1.43473 l -2.026499,-0.15627 -0.552429,1.75996 c -0.303836,0.96798 -0.749194,2.75074 -0.989686,3.96169 -0.432714,2.17885 -0.43114,2.21386 0.151497,3.3697 0.87059,1.72709 1.09435,1.95593 1.392156,1.42378 0.159142,-0.28437 0.142837,-0.54198 -0.04627,-0.73109 z m 95.543581,0.3262 c 1.48331,-0.44175 1.90927,-0.48288 2.2315,-0.21545 0.57761,0.47937 0.88021,-0.12754 0.87361,-1.75213 -0.008,-2.07546 -1.25581,-6.5936 -1.97705,-7.16106 -0.41367,-0.32546 -4.02834,-0.0228 -4.42136,0.37024 -0.13424,0.13424 -0.20499,0.58599 -0.15724,1.0039 0.0807,0.70598 0.1578,0.75366 1.088,0.67265 0.55065,-0.048 1.35271,-0.18802 1.78237,-0.31124 0.42966,-0.12322 0.84319,-0.12375 0.91896,-0.001 0.0758,0.12259 -0.66677,0.48686 -1.65008,0.80948 -2.05304,0.6736 -2.44929,0.92832 -2.44929,1.57448 0,0.92877 0.57685,1.04742 2.49983,0.5142 1.75432,-0.48646 2.3756,-0.49282 1.84816,-0.0189 -0.13582,0.12203 -1.05062,0.49926 -2.03289,0.83827 -1.52232,0.52541 -1.78593,0.70804 -1.78593,1.23723 0,0.8577 0.50806,0.97415 2.13816,0.49006 0.7686,-0.22825 1.64374,-0.41122 1.94475,-0.40659 0.52593,0.008 0.52819,0.0229 0.0579,0.37919 -0.26917,0.20392 -1.08657,0.52381 -1.81644,0.71087 -1.34804,0.3455 -1.70884,0.7013 -1.43494,1.41507 0.192,0.50036 0.15287,0.50285 2.34198,-0.14909 z m -68.614527,-6.54444 c 0.23535,-0.2617 2.57103,-2.1819 5.1904,-4.26711 6.83667,-5.44247 6.21771,-4.68402 6.21771,-7.61901 0,-1.84398 -0.1101,-2.64139 -0.43271,-3.13375 -0.54807,-0.83646 -0.33856,-1.03832 0.97896,-0.94319 0.89251,0.0644 1.18676,-0.0581 1.93199,-0.80453 1.68907,-1.69182 1.44507,-4.18784 -0.40938,-4.18784 -0.56774,0 -1.27893,0.34684 -2.25456,1.09954 -1.75459,1.35365 -2.12219,1.17515 -1.69378,-0.82246 0.4021,-1.87491 0.36774,-2.50615 -0.17273,-3.1736 -0.44063,-0.54416 -0.57165,-0.56062 -2.52858,-0.31766 -2.51722,0.31251 -5.14084,-0.005 -7.55888,-0.91534 -0.94839,-0.35698 -1.87082,-0.59283 -2.04985,-0.52413 -0.17903,0.0687 -0.38439,0.63786 -0.45636,1.2648 -0.072,0.62694 -0.26914,2.24417 -0.43817,3.59385 -0.24007,1.91696 -0.2353,2.75648 0.0218,3.83646 0.98309,4.1295 1.36916,5.38184 1.74813,5.67044 0.23052,0.17556 1.08582,0.4576 1.90067,0.62676 1.98367,0.41181 4.61102,-0.0575 6.98168,-1.24706 0.98227,-0.4929 1.78594,-0.8009 1.78594,-0.68446 0,0.39307 -2.50463,2.63369 -3.70417,3.31372 -0.65484,0.37123 -1.97753,0.92691 -2.93932,1.23484 l -1.74869,0.55988 -0.16766,1.77502 c -0.0922,0.97626 -0.16849,2.4001 -0.16953,3.16409 -0.001,0.76398 -0.0989,1.38906 -0.21746,1.38906 -0.39809,0 -1.15715,-1.9643 -1.30222,-3.36991 -0.10366,-1.00432 -0.25549,-1.39259 -0.54456,-1.39259 -0.47402,0 -2.10273,1.67903 -2.78124,2.86718 l -0.47798,0.83699 h 1.03721 c 1.05957,0 1.96234,0.63968 2.89384,2.05052 0.47514,0.71964 0.79453,0.74771 1.3595,0.11949 z m -0.13978,-15.04349 c -0.31222,-0.0664 -0.77716,-0.35214 -1.03319,-0.63506 -0.45724,-0.50523 -0.42919,-0.51438 1.57696,-0.51438 1.49949,0 2.39178,-0.15026 3.35635,-0.56521 1.38299,-0.59495 1.87386,-0.52581 1.28703,0.18128 -0.85415,1.02919 -3.65876,1.85826 -5.18715,1.53337 z m 12.54685,-2.89738 c 0.077,-0.40277 -0.008,-0.77611 -0.20473,-0.8976 -0.24772,-0.1531 -0.18298,-0.29019 0.24527,-0.51938 1.17553,-0.62912 1.58534,0.49521 0.59907,1.64356 -0.56319,0.65575 -0.79273,0.57443 -0.63961,-0.22658 z m -14.03985,-0.004 c -0.35678,-0.35678 -0.18603,-1.06859 0.60798,-2.53457 l 0.79625,-1.47013 -0.62159,-0.40728 c -0.34187,-0.224 -0.96808,-0.44679 -1.39156,-0.49509 -0.98144,-0.11192 -1.0132,-0.78328 -0.053,-1.12095 1.10487,-0.38856 1.97044,0.13973 2.36016,1.44051 0.27896,0.93106 0.26072,1.27341 -0.12295,2.30862 -0.49418,1.33336 -0.33908,1.63786 0.8382,1.64559 0.37444,0.002 0.57448,0.13419 0.50837,0.33478 -0.11821,0.3587 -2.60733,0.61301 -2.92183,0.29852 z m 7.85643,-3.65311 c -0.29683,-0.20791 -1.00694,-0.41627 -1.57802,-0.46302 -1.26248,-0.10335 -1.62139,-0.88892 -0.53114,-1.16256 0.9526,-0.23909 1.93627,0.0618 2.70045,0.82596 0.945,0.945 0.49163,1.55813 -0.59129,0.79962 z m 36.485847,20.75094 c 1.04039,-1.08899 1.42572,-1.32291 2.17916,-1.32291 1.33868,0 1.17684,-0.55063 -0.72219,-2.45713 l -1.63748,-1.64392 -0.22775,1.45521 c -0.12526,0.80037 -0.48972,1.98746 -0.80991,2.638 l -0.58217,1.18278 -0.17526,-1.31508 c -0.0964,-0.72329 -0.18751,-2.02945 -0.20249,-2.90257 -0.015,-0.87313 -0.12095,-1.73506 -0.23549,-1.91542 -0.11455,-0.18035 -0.97512,-0.57966 -1.91239,-0.88735 -0.93727,-0.30769 -2.13569,-0.7796 -2.66316,-1.0487 -1.04661,-0.53394 -3.93934,-3.06804 -3.93934,-3.45096 0,-0.13083 0.80367,0.16322 1.78594,0.65345 3.11261,1.55343 5.94543,1.83254 8.44572,0.83212 1.02165,-0.40878 1.02851,-0.42149 1.61112,-2.98538 0.32181,-1.41616 0.65517,-3.0511 0.74082,-3.63318 0.14253,-0.96872 -0.52832,-7.61461 -0.81555,-8.07936 -0.0679,-0.10977 -0.98724,0.13531 -2.0431,0.54462 -2.54701,0.98737 -5.18825,1.33627 -7.72841,1.02091 -3.11368,-0.38656 -3.65961,0.19247 -2.97509,3.1555 0.28582,1.23719 0.30263,1.69554 0.0693,1.88921 -0.31503,0.26145 -0.50194,0.16628 -2.72691,-1.38847 -1.30207,-0.90986 -2.24788,-0.7808 -2.72535,0.3719 -0.26626,0.64281 -0.24392,0.97804 0.13053,1.95851 0.64075,1.67777 1.56308,2.33963 2.98987,2.14551 0.98592,-0.13415 1.12447,-0.0903 1.12447,0.35549 0,0.27967 -0.11906,0.58208 -0.26458,0.67201 -0.14907,0.0921 -0.26458,1.37023 -0.26458,2.92742 v 2.7639 l 1.48632,1.12309 c 3.38164,2.55523 9.78626,7.7031 10.15534,8.16261 0.21829,0.27175 0.45806,0.49568 0.53283,0.49761 0.0748,0.002 0.70469,-0.59181 1.39981,-1.31942 z m -4.44618,-14.25865 c -1.63035,-0.42088 -3.36991,-1.64193 -2.94479,-2.06704 0.0953,-0.0953 0.6183,0.0484 1.16218,0.31934 0.63544,0.31658 1.83993,0.5463 3.37011,0.64273 l 2.38125,0.15008 -0.69962,0.47511 c -0.83323,0.56586 -2.17367,0.76258 -3.26913,0.47978 z m -11.09749,-2.73355 c -0.47,-0.67101 -0.55129,-1.79321 -0.1299,-1.79321 0.81089,0 1.20114,0.51303 1.09325,1.4372 -0.12721,1.08968 -0.38321,1.18428 -0.96335,0.35601 z m 12.0795,-0.24132 c 0.0602,-0.18051 0.45915,-0.44123 0.88661,-0.57939 0.42747,-0.13816 0.80416,-0.27176 0.83708,-0.29689 0.0329,-0.0251 -0.1778,-0.67121 -0.46829,-1.43572 -0.93327,-2.45615 -0.11543,-2.33711 1.19777,0.17435 1.01849,1.94783 0.87363,2.28765 -1.01707,2.38569 -1.13959,0.0591 -1.51676,-0.006 -1.4361,-0.24804 z m -6.03811,-3.45093 c -0.11521,-0.18642 0.16673,-0.61148 0.70199,-1.05834 0.96842,-0.80847 2.35841,-1.00118 2.86021,-0.39654 0.41805,0.50371 -0.13847,0.97267 -1.15428,0.97267 -0.4524,0 -1.05367,0.1748 -1.33614,0.38846 -0.63057,0.47693 -0.82448,0.49389 -1.07178,0.0937 z m 7.38493,-1.18488 c -0.20023,-0.52179 0.78054,-1.414 1.55434,-1.414 0.64874,0 1.54079,0.46493 1.54079,0.80306 0,0.1404 -0.26789,0.25601 -0.59531,0.2569 -0.32742,9e-4 -0.93634,0.17949 -1.35316,0.39688 -0.94064,0.49057 -0.94199,0.49052 -1.14666,-0.0428 z m -7.97012,22.58436 c 0.19229,-0.18882 0.91517,-0.73032 1.6064,-1.20334 0.69122,-0.47301 1.25677,-0.92647 1.25677,-1.00767 0,-0.0812 -0.32026,-0.40291 -0.71168,-0.7149 -1.78627,-1.42377 -4.29193,-3.31146 -5.42994,-4.09077 l -1.24683,-0.85383 -0.42792,0.6531 c -0.26092,0.3982 -0.34225,0.79425 -0.20839,1.01476 0.39973,0.65849 4.65991,6.54596 4.73666,6.54596 0.0414,0 0.23263,-0.15449 0.42493,-0.34331 z m -23.502997,-0.309 c 0.0818,-0.21324 1.04707,-1.63489 2.14497,-3.15921 1.09791,-1.52431 1.9962,-2.91804 1.9962,-3.09717 0,-0.17913 -0.18935,-0.53492 -0.42078,-0.79064 -0.39718,-0.43889 -0.51374,-0.39555 -2.07896,0.77292 -4.55919,3.40353 -5.4477,4.11847 -5.37804,4.32745 0.13506,0.40519 2.70577,2.29094 3.15311,2.31297 0.2391,0.0118 0.50167,-0.15307 0.5835,-0.36632 z m 57.118777,-3.5935 0.98698,-0.27411 -0.16365,-1.56572 c -0.19505,-1.86606 0.0849,-2.67366 1.68305,-4.85578 0.62384,-0.85179 1.06179,-1.66597 0.97321,-1.80929 -0.0886,-0.14332 -1.69534,-0.98275 -3.57058,-1.86541 -1.87525,-0.88265 -3.40954,-1.74647 -3.40954,-1.9196 0,-0.17313 0.23844,-1.00779 0.52985,-1.85482 0.29142,-0.84702 0.49329,-1.57661 0.44859,-1.62131 -0.0447,-0.0447 -0.59004,0.17045 -1.21187,0.47811 -1.55837,0.77102 -2.49138,2.29424 -2.47712,4.04408 0.0141,1.7313 0.55843,2.93608 1.91779,4.24486 0.60458,0.58209 1.21814,1.27618 1.36346,1.54243 0.21104,0.38665 1.54597,5.25263 1.54597,5.63525 0,0.15684 0.3284,0.11443 1.38386,-0.17869 z m -0.23167,-5.15165 c -0.15238,-0.39711 0.31243,-1.87695 0.7423,-2.36327 0.13906,-0.15732 0.33044,-0.14309 0.51157,0.038 0.20947,0.20947 0.14051,0.62598 -0.2497,1.50812 -0.57632,1.30287 -0.76031,1.45259 -1.00417,0.81711 z m -1.31371,-1.23819 c 0.215,-1.07498 0.89861,-2.1306 1.24224,-1.91823 0.4749,0.29351 -0.43108,2.76429 -1.0136,2.76429 -0.30641,0 -0.35896,-0.19445 -0.22864,-0.84606 z m -1.42598,-0.13728 c 0,-0.10427 0.19477,-0.69959 0.43282,-1.32292 0.43762,-1.1459 0.79716,-1.41879 1.03898,-0.7886 0.20114,0.52415 -0.63168,2.30111 -1.07848,2.30111 -0.21632,0 -0.39332,-0.0853 -0.39332,-0.18959 z m -84.968177,3.95991 c 0.57038,-4.22069 0.870216,-6.2715 1.08096,-7.39355 0.160201,-0.85294 0.122432,-1.14269 -0.163237,-1.25231 -0.48976,-0.18794 -0.496162,-0.16405 -1.271071,4.74325 -0.367666,2.32833 -0.743498,4.67982 -0.835182,5.22552 -0.145691,0.86715 -0.101018,0.99219 0.354485,0.99219 0.454977,0 0.560928,-0.29409 0.834045,-2.3151 z M 145.576,160.91354 c -9.1e-4,-0.77854 -0.19052,-1.36093 -0.61633,-1.89308 l -0.61501,-0.7686 -0.44201,1.10469 c -0.60738,1.51799 -0.56762,1.7292 0.41789,2.21967 1.21924,0.6068 1.25692,0.58691 1.25546,-0.66268 z m -81.381707,-0.95393 c 0.24037,-0.38893 -1.57117,-2.24827 -3.05528,-3.13591 -2.13054,-1.27426 -6.578368,-2.22562 -6.578368,-1.40706 0,0.37085 -1.445749,1.06513 -2.217989,1.06513 -0.424395,0 -0.716191,-0.18722 -0.824719,-0.52916 -0.123139,-0.38798 -0.400324,-0.52917 -1.038853,-0.52917 h -0.870902 l 0.02884,2.11563 0.02884,2.11564 0.865568,0.001 c 0.667056,8e-4 0.934688,-0.15067 1.166949,-0.66043 0.245299,-0.53837 0.490413,-0.66145 1.317244,-0.66145 0.558725,0 1.015864,0.11906 1.015864,0.26458 0,0.68379 1.089669,1.32292 2.255507,1.32292 1.004424,0 1.23428,-0.0976 1.427645,-0.60619 0.435944,-1.14663 0.979144,-1.38176 2.356604,-1.02009 0.67996,0.17853 1.77207,0.66666 2.42691,1.08472 1.32762,0.84757 1.49525,0.90487 1.69615,0.57981 z m -15.701014,-3.30104 c -0.200456,-0.20045 -0.282634,0.0276 -0.282634,0.78452 0,1.38797 0.371926,1.76223 0.481071,0.48409 0.04631,-0.54228 -0.04299,-1.11316 -0.198437,-1.26861 z m 42.458424,-5.06679 c 0.22362,-1.78982 0.0431,-2.54914 -0.94854,-3.99048 -1.02182,-1.48516 -2.67937,-2.87952 -4.45683,-3.74915 -2.06818,-1.01186 -5.43986,-1.16921 -7.35942,-0.34344 -1.21504,0.5227 -2.72091,1.72426 -2.4386,1.94581 0.0612,0.048 0.8852,0.36183 1.83108,0.69733 3.06314,1.08647 9.80663,4.64879 12.14037,6.41326 0.34705,0.26239 0.72543,0.47708 0.84086,0.47708 0.11542,0 0.29141,-0.65269 0.39108,-1.45041 z m 12.587327,0.96306 c 2.11882,-1.63648 8.84742,-5.165 11.94193,-6.26242 1.12778,-0.39995 2.05052,-0.82214 2.05052,-0.93819 0,-0.44971 -1.96507,-1.79991 -3.06967,-2.10917 -1.8802,-0.52643 -4.98932,-0.21957 -6.71992,0.66322 -2.10296,1.07274 -3.12245,1.92116 -4.41353,3.67291 -1.00028,1.3572 -1.14227,1.71998 -1.1391,2.91042 0.004,1.50536 0.21739,2.55058 0.52073,2.55058 0.10892,0 0.48199,-0.21931 0.82904,-0.48735 z m -20.562557,-1.85041 c 0.16284,-0.26348 -3.22906,-1.97777 -5.65233,-2.85673 -1.78865,-0.64877 -5.83016,-1.15224 -5.83016,-0.72629 0,0.36303 2.40881,1.86578 4.00979,2.50153 2.63834,1.04768 7.09497,1.69268 7.4727,1.08149 z m 32.541667,-0.30067 c 2.20663,-0.56436 5.37929,-2.09863 6.15889,-2.97839 l 0.48466,-0.54692 -2.16848,0.16207 c -1.54404,0.11539 -2.84448,0.42313 -4.51597,1.06866 -3.13962,1.21252 -5.14411,2.24937 -4.9514,2.56118 0.26222,0.42427 2.82642,0.28734 4.9923,-0.2666 z m 13.84354,7.23669 c -0.10369,-0.1037 -0.18853,-3.08372 -0.18853,-6.62228 v -6.43373 l -1.38907,-0.7004 c -0.76398,-0.38522 -4.00843,-2.1335 -7.20989,-3.88508 -3.20146,-1.75157 -6.53521,-3.56628 -7.40834,-4.03269 -0.87312,-0.4664 -4.66925,-2.52715 -8.43583,-4.57942 -3.76658,-2.05228 -7.073187,-3.80279 -7.348027,-3.89002 -0.32164,-0.10208 -1.41686,0.33413 -3.07354,1.22415 -1.41562,0.76051 -3.46682,1.8604 -4.55822,2.44419 -1.09141,0.58379 -2.79871,1.51822 -3.794,2.07652 -0.9953,0.55829 -1.85212,1.01508 -1.90406,1.01508 -0.0519,0 -0.78541,0.39872 -1.62996,0.88604 -0.84454,0.48732 -2.42849,1.3667 -3.5199,1.95417 -6.1643,3.31806 -13.40568,7.30488 -13.69219,7.53838 -0.24155,0.19686 -0.33073,1.50924 -0.33073,4.86735 0,2.5288 -0.0926,4.59781 -0.20571,4.59781 -0.11314,0 -0.47033,-0.18534 -0.79375,-0.41188 -0.55616,-0.38955 -0.58804,-0.59753 -0.58804,-3.83645 v -3.42458 h -2.43416 c -1.46886,0 -2.33449,-0.0954 -2.18282,-0.2406 0.23531,-0.22523 2.78016,-1.64013 8.0451,-4.47296 1.23061,-0.66214 3.25468,-1.76742 4.49791,-2.45619 l 2.26043,-1.2523 -0.0813,-4.52023 -0.0813,-4.52023 h 3.88847 3.88847 l -0.16684,1.38907 c -0.0918,0.76398 -0.16789,1.76213 -0.16915,2.2181 -0.002,0.56114 -0.15192,0.87205 -0.46532,0.96217 -0.25466,0.0732 -0.67138,0.21891 -0.92604,0.32375 -0.41124,0.16929 -0.46302,0.01 -0.46302,-1.42519 v -1.61587 h -1.85209 -1.85208 v 3.04271 c 0,1.67349 0.0791,3.0427 0.17587,3.0427 0.0967,0 1.07899,-0.49245 2.18281,-1.09435 4.37544,-2.38584 4.95522,-2.7036 5.9757,-3.2751 0.58208,-0.32598 1.89177,-1.04285 2.91041,-1.59303 1.01865,-0.55019 3.40067,-1.84472 5.29339,-2.87674 1.89272,-1.03202 3.87278,-2.10416 4.40012,-2.38254 l 0.95881,-0.50614 1.42072,0.79883 c 1.617187,0.90931 1.2643,0.71699 15.443627,8.41637 5.82084,3.16071 11.29771,6.13484 12.17084,6.60919 0.87312,0.47435 2.54,1.37222 3.70416,1.99528 1.16417,0.62305 2.95011,1.62065 3.96875,2.21688 l 1.85209,1.08406 -2.30987,0.0764 -2.30988,0.0764 -0.0714,5.61218 -0.0714,5.61217 -0.67136,0.0783 c -0.36925,0.0431 -0.7562,-0.007 -0.8599,-0.11024 z M 92.660643,140.739 v -1.71979 h 1.85209 1.85208 v 1.71979 1.7198 h -1.85208 -1.85209 z m 5.29167,0 v -1.71979 h 1.71979 1.719787 v 1.71979 1.7198 h -1.719787 -1.71979 z m -5.29167,-4.75041 v -1.73188 h 1.86471 1.86471 l -0.0788,1.65365 -0.0788,1.65364 -1.78594,0.0782 -1.78593,0.0782 z m 5.29167,-0.0121 v -1.71979 h 1.71979 1.719787 v 1.71979 1.71979 h -1.719787 -1.71979 z"
       id="path1" /><path
       id="path2"
       clip-path="url(#clipPath6)"
       style="fill:#8f550d;fill-opacity:1"
       d="m 138.81065,35.393705 c -1.67439,0.05078 -3.44316,0.481461 -5.1971,1.305347 -1.97269,0.92664 -4.36761,3.161864 -5.31802,4.963004 -0.70652,1.33895 -0.84549,4.16087 -0.28629,5.8167 0.27258,0.80712 0.2435,1.074789 -0.21497,1.974039 -0.6676,1.30944 -0.66511,1.872196 0.0181,3.697966 0.5203,1.39062 1.51199,2.45766 2.65514,2.85719 0.86931,0.30383 1.04006,3.645146 0.26407,5.165576 -0.27556,0.53991 -0.72205,1.180576 -0.99219,1.423686 -0.80201,0.571575 -1.46329,1.147491 -2.04794,1.724959 0.002,5.61e-4 0.005,0.0015 0.007,0.0021 0.003,9.96e-4 0.0951,0.02737 0.11162,0.03411 0.0322,0.0077 0.0646,0.0138 0.0941,0.02842 0.0113,0.0056 -0.0241,-0.0065 -0.0362,-0.0098 0.17429,0.05476 0.34074,0.124877 0.48215,0.243913 0.0914,0.07162 0.18443,0.141216 0.26613,0.224276 0.0576,0.05546 0.11575,0.110638 0.17105,0.168465 0.28799,0.04856 0.61556,0.136337 1.0051,0.28577 0.60218,0.23108 5.67304,7.283131 5.67304,7.889441 0,0.52002 0.70771,0.09413 2.34095,-1.408182 2.44626,-2.25017 2.69203,-2.336274 4.02456,-1.412834 0.59662,0.41346 1.59476,1.319087 2.21847,2.012797 l 1.13429,1.261422 0.62529,-1.215947 c 0.34404,-0.66892 0.95724,-1.571502 1.36271,-2.005562 0.85333,-0.91349 1.36953,-0.890026 3.66592,0.165364 0.78104,0.35896 1.50679,0.598801 1.61282,0.533301 0.25264,-0.15614 -0.16374,-1.224493 -1.14773,-2.944523 -0.91191,-1.59404 -0.81088,-1.64819 1.4826,-0.79375 2.1774,0.81119 4.72099,3.363604 7.50703,7.532874 1.18835,1.77834 2.16059,3.341546 2.16059,3.474206 0,0.21322 -4.07474,3.478858 -4.34082,3.478858 -0.0577,0 -0.18477,-0.744136 -0.28267,-1.653646 -0.33678,-3.12981 -1.5731,-6.989256 -2.56367,-8.003646 -0.16899,-0.17307 -0.2062,-0.03581 -0.108,0.396875 0.49251,2.16898 0.91232,15.493384 0.52038,16.514754 -0.39804,1.037238 -1.0087,1.679974 -1.77715,2.006079 h 23.89777 v -0.79375 -0.79375 h -2.76211 c -1.53641,0 -2.83437,-0.116419 -2.92437,-0.261999 -0.089,-0.14396 -0.0237,-0.964028 0.14521,-1.822628 0.30032,-1.52649 0.32915,-1.564495 1.29708,-1.719275 2.13273,-0.34103 3.11435,-1.973759 2.80913,-4.671549 -0.1362,-1.20381 -0.0487,-1.920469 0.40515,-3.325379 0.53364,-1.65181 0.5518,-1.926 0.23719,-3.52795 -0.37572,-1.91308 -1.68085,-6.060817 -2.25929,-7.179407 -0.25064,-0.48468 -0.65798,-0.766876 -1.27228,-0.882116 -0.74519,-0.1398 -0.93224,-0.313648 -1.06763,-0.990638 -0.33809,-1.69042 -0.16767,-2.23792 1.42317,-4.56923 1.68093,-2.46334 1.89117,-3.147895 1.09605,-3.573425 -0.32193,-0.1723 -0.54995,-0.686598 -0.6599,-1.488798 -0.30178,-2.20169 -1.99345,-5.145939 -2.95693,-5.145939 -0.16806,0 -0.63875,0.863199 -1.04541,1.918229 -0.40666,1.05502 -0.82409,2.012959 -0.9276,2.129069 -0.10352,0.11611 -0.51268,0.06349 -0.9095,-0.117305 -0.63721,-0.29033 -0.7022,-0.432537 -0.55552,-1.214397 0.0913,-0.48691 0.39827,-1.425684 0.68161,-2.086694 0.28334,-0.661 0.5147,-1.311413 0.5147,-1.444873 0,-0.13345 -0.47725,-0.242362 -1.06092,-0.242362 -2.44468,0 -5.35818,2.353946 -5.69526,4.601786 -0.21779,1.4523 0.0401,3.419841 0.59273,4.522721 0.2197,0.43847 0.97461,1.392674 1.67793,2.120284 1.18666,1.22763 1.31321,1.490768 1.75545,3.657658 0.46772,2.29182 0.46697,2.340862 -0.0357,2.622062 -0.28157,0.15757 -1.02446,0.758773 -1.65106,1.336353 -1.06178,0.97875 -1.13916,1.142328 -1.13016,2.405538 0.005,0.74545 0.18906,2.129384 0.40824,3.075264 0.60123,2.59469 0.75116,3.96875 0.43357,3.96875 -0.15192,0 -0.70573,-0.768736 -1.23094,-1.707906 -1.41503,-2.53031 -3.6391,-5.650272 -5.13715,-7.207312 -1.52405,-1.58405 -2.65618,-2.195429 -7.05073,-3.807519 -3.0481,-1.11816 -5.41445,-2.409417 -5.62136,-3.066997 -0.0539,-0.17129 0.44916,-0.55358 1.11827,-0.84956 1.48123,-0.65522 2.00393,-1.677374 2.81585,-5.504574 0.50407,-2.37605 0.52443,-2.851422 0.23978,-5.637382 -0.17099,-1.67349 -0.35151,-3.254374 -0.40101,-3.512964 -0.0642,-0.33518 0.26513,-0.650114 1.14619,-1.096574 1.77204,-0.89797 2.68665,-1.896184 2.68665,-2.931604 0,-1.75733 -1.64865,-2.777608 -4.4881,-2.777608 -1.32158,0 -1.43658,-0.05839 -2.54609,-1.292427 -1.76372,-1.961675 -4.29264,-2.932009 -7.08329,-2.847372 z m 15.09055,55.733549 h -2.99517 c 1.14917,0.32738 2.1659,0.351917 2.99517,0 z m -2.99517,0 c -0.59128,-0.168447 -1.22049,-0.425803 -1.87327,-0.743107 -0.0373,0.09858 -0.0809,0.193898 -0.12919,0.286288 0.27703,0.146464 0.57795,0.31314 0.8506,0.456819 z M 139.1605,37.155355 c 0.91321,-0.02338 1.79089,0.05684 2.49597,0.254248 1.1046,0.30926 3.06958,1.659205 3.06958,2.108915 0,0.11605 -0.92274,0.538494 -2.05052,0.938444 -3.09451,1.09742 -9.82309,4.62567 -11.94191,6.26215 -0.34705,0.26804 -0.71997,0.487826 -0.82889,0.487826 -0.30334,0 -0.5169,-1.045389 -0.5209,-2.550749 -0.003,-1.19044 0.13919,-1.553217 1.13947,-2.910417 1.29108,-1.75175 2.31021,-2.600421 4.41317,-3.673161 1.08162,-0.551743 2.70202,-0.87829 4.22403,-0.917256 z m 10.19576,3.887618 -0.48421,0.546736 c -0.7796,0.87976 -3.95268,2.41427 -6.15931,2.97863 -2.16588,0.55394 -4.72973,0.69092 -4.99195,0.26665 -0.19271,-0.31181 1.8115,-1.348564 4.95112,-2.561084 1.67149,-0.64553 2.97197,-0.953278 4.51601,-1.068668 z m -2.32182,3.754293 c 0.11223,-0.01394 0.18249,-0.0088 0.19947,0.0186 0.28723,0.46475 0.95798,7.11089 0.81545,8.07961 -0.0857,0.58208 -0.41871,2.216694 -0.74052,3.632854 -0.58261,2.56389 -0.58962,2.576567 -1.61127,2.985347 -2.50029,1.00042 -5.33339,0.721439 -8.446,-0.831991 -0.98227,-0.49023 -1.78594,-0.784536 -1.78594,-0.653706 0,0.38292 2.89269,2.917012 3.9393,3.450952 0.52747,0.2691 1.72613,0.741341 2.6634,1.049031 0.93727,0.30769 1.798,0.706935 1.91255,0.887285 0.11454,0.18036 0.22012,1.042515 0.23512,1.915645 0.015,0.87312 0.10618,2.178858 0.20258,2.902148 l 0.17518,1.315166 0.58239,-1.182874 c 0.32019,-0.65054 0.68451,-1.837712 0.80977,-2.638082 l 0.22789,-1.455208 1.63763,1.644344 c 1.89903,1.9065 2.0606,2.457214 0.72192,2.457214 -0.75344,0 -1.1388,0.23341 -2.17919,1.3224 -0.69512,0.72761 -1.3246,1.321816 -1.3994,1.319816 -0.0748,-0.0019 -0.31501,-0.225894 -0.5333,-0.497644 -0.36908,-0.45951 -6.7733,-5.607579 -10.15494,-8.162809 l -1.48673,-1.122929 v -2.764172 c 0,-1.55719 0.11551,-2.83537 0.26458,-2.92747 0.14552,-0.08993 0.26459,-0.392124 0.26459,-0.671794 0,-0.44579 -0.13856,-0.489684 -1.12448,-0.355534 -1.42679,0.19412 -2.34873,-0.467835 -2.98948,-2.145605 -0.37445,-0.98047 -0.39701,-1.315727 -0.13075,-1.958537 0.47747,-1.1527 1.42335,-1.281413 2.72542,-0.371553 2.22497,1.55475 2.41193,1.649995 2.72696,1.388545 0.23333,-0.19367 0.21642,-0.6521 -0.0692,-1.88929 -0.68452,-2.96303 -0.13867,-3.54244 2.97501,-3.15588 2.54016,0.31536 5.1812,-0.03324 7.72821,-1.020609 0.7919,-0.306983 1.50711,-0.521467 1.84382,-0.563273 z m -1.20303,1.615922 c -0.7738,0 -1.75466,0.892077 -1.55443,1.413867 0.20467,0.53332 0.20606,0.533465 1.1467,0.04289 0.41682,-0.21739 1.02547,-0.395975 1.35289,-0.396875 0.32742,-8.9e-4 0.59531,-0.116432 0.59531,-0.256832 0,-0.33813 -0.89173,-0.803051 -1.54047,-0.803051 z m -6.24717,0.790132 c -0.61484,-0.0201 -1.38479,0.245048 -1.99005,0.750342 -0.53526,0.44686 -0.8175,0.871913 -0.70229,1.058333 0.2473,0.40019 0.4412,0.382875 1.07177,-0.09405 0.28247,-0.21366 0.88395,-0.38809 1.33635,-0.38809 1.01581,0 1.57251,-0.469357 1.15446,-0.973067 -0.18818,-0.22674 -0.50133,-0.341401 -0.87024,-0.353468 z m 4.35788,1.171505 c -0.25195,-0.03667 -0.22324,0.548044 0.24339,1.776119 0.29049,0.76451 0.50109,1.410471 0.46819,1.435571 -0.0329,0.02513 -0.40969,0.158463 -0.83716,0.296623 -0.42746,0.13816 -0.82605,0.3993 -0.88625,0.57981 -0.0807,0.24204 0.2965,0.307146 1.43609,0.248046 1.8907,-0.09804 2.03548,-0.43807 1.01699,-2.3859 -0.6566,-1.25573 -1.1893,-1.913595 -1.44125,-1.950269 z m 23.45851,2.367814 c 0.0447,0.0447 -0.15713,0.774587 -0.44855,1.621607 -0.29141,0.84703 -0.5302,1.681537 -0.5302,1.854667 0,0.17313 1.53436,1.037129 3.40961,1.919779 1.87524,0.88266 3.48225,1.721683 3.57085,1.865003 0.0886,0.14332 -0.34975,0.957918 -0.97359,1.809708 -1.59815,2.18212 -1.87763,2.989458 -1.68258,4.855518 l 0.16329,1.565796 -0.98702,0.273885 c -1.05546,0.29312 -1.38389,0.33564 -1.38389,0.1788 0,-0.38262 -1.3346,-5.248665 -1.54564,-5.635315 -0.14532,-0.26625 -0.75916,-0.960451 -1.36374,-1.542541 -1.35936,-1.30878 -1.90362,-2.513402 -1.91772,-4.244702 -0.0143,-1.74984 0.919,-3.273178 2.47737,-4.044198 0.62183,-0.30766 1.16711,-0.522707 1.21181,-0.478007 z m -36.67993,0.168465 c -0.42139,0 -0.34029,1.122163 0.12971,1.793173 0.58014,0.82827 0.83656,0.733629 0.96377,-0.356051 0.10789,-0.92417 -0.28259,-1.437122 -1.09348,-1.437122 z m 40.8187,1.505335 0.61495,0.768428 c 0.42581,0.53215 0.61559,1.114368 0.6165,1.892908 0.001,1.24959 -0.0365,1.269809 -1.25574,0.663009 -0.98551,-0.49047 -1.02492,-0.701513 -0.41754,-2.219503 z m -32.39079,0.925525 c -0.0709,-0.0043 -0.12138,0.0046 -0.14521,0.02842 -0.42512,0.42511 1.31417,1.646177 2.94452,2.067057 1.09546,0.2828 2.43634,0.0863 3.26957,-0.479557 l 0.69918,-0.474907 -2.38125,-0.150378 c -1.53018,-0.09643 -2.73438,-0.326275 -3.36982,-0.642855 -0.40791,-0.203205 -0.80419,-0.334871 -1.01699,-0.347782 z m 28.95482,4.19871 c -0.20283,0.02681 -0.44582,0.40209 -0.71933,1.118278 -0.23805,0.62333 -0.43305,1.218646 -0.43305,1.322916 0,0.10429 0.17745,0.189136 0.39377,0.189136 0.4468,0 1.27911,-1.776485 1.07797,-2.300635 -0.0907,-0.236321 -0.19765,-0.345779 -0.31936,-0.329695 z m 1.37305,0.63717 c -0.36399,0.07448 -0.91104,1.00036 -1.09916,1.940967 -0.13032,0.65161 -0.078,0.845943 0.22841,0.845943 0.58252,0 1.48879,-2.470662 1.01389,-2.764172 -0.0429,-0.02655 -0.0911,-0.03338 -0.14314,-0.02274 z m 1.19682,0.707967 c -0.0879,-0.0065 -0.17076,0.02934 -0.24029,0.108004 -0.42987,0.48632 -0.89446,1.966053 -0.74208,2.363163 0.24386,0.63548 0.42776,0.485866 1.00408,-0.817004 0.39021,-0.88214 0.45906,-1.298448 0.24959,-1.507918 -0.0906,-0.09054 -0.18343,-0.139716 -0.2713,-0.146245 z m -38.89168,3.655074 1.24695,0.853695 c 1.13801,0.77931 3.64338,2.666936 5.42965,4.090706 0.39142,0.31199 0.71158,0.634002 0.71158,0.715202 0,0.0812 -0.56555,0.534681 -1.25677,1.007691 -0.69123,0.47302 -1.41381,1.014207 -1.6061,1.203027 -0.1923,0.18882 -0.38338,0.343648 -0.42478,0.343648 -0.0768,0 -4.33694,-5.88788 -4.73667,-6.54637 -0.13386,-0.22051 -0.0527,-0.616208 0.20826,-1.014408 z m 40.83575,5.283399 c 0.40319,0.01125 0.70635,0.05351 0.80977,0.134875 0.72124,0.56746 1.96914,5.085344 1.97714,7.160804 0.007,1.62459 -0.29572,2.231717 -0.87333,1.752347 -0.32223,-0.26743 -0.74808,-0.226259 -2.23139,0.215491 -2.18911,0.65194 -2.14998,0.649705 -2.34198,0.149345 -0.2739,-0.71377 0.0865,-1.069917 1.43454,-1.415417 0.72987,-0.18706 1.54726,-0.506631 1.81643,-0.710551 0.47029,-0.35629 0.46813,-0.371305 -0.0579,-0.379305 -0.30101,-0.0046 -1.17598,0.178443 -1.94458,0.406693 -1.6301,0.48409 -2.13837,0.367291 -2.13837,-0.490409 0,-0.52919 0.26361,-0.711724 1.78593,-1.237134 0.98227,-0.33901 1.89713,-0.716162 2.03295,-0.838192 0.52744,-0.47392 -0.0936,-0.46734 -1.84794,0.01912 -1.92298,0.53322 -2.50011,0.41459 -2.50011,-0.51418 0,-0.64616 0.39642,-0.900981 2.44946,-1.574581 0.98331,-0.32262 1.72583,-0.68718 1.65003,-0.80977 -0.0758,-0.12275 -0.48915,-0.12205 -0.91881,10e-4 -0.42966,0.12322 -1.23167,0.263609 -1.78232,0.311609 -0.9302,0.08101 -1.0076,0.03315 -1.0883,-0.672827 -0.0478,-0.41791 0.0234,-0.869833 0.15761,-1.004073 0.29477,-0.29478 2.40158,-0.538636 3.61115,-0.504879 z m -5.31699,0.355017 c 0.97614,0.32124 0.076,3.135961 -1.1808,3.692281 -0.95046,0.42072 -0.83727,0.841833 0.25579,0.949813 0.66871,0.06605 0.86765,0.22691 0.98186,0.79375 0.26419,1.31122 1.24127,4.288591 1.44952,4.417301 0.11333,0.07004 0.35609,1.169669 0.5395,2.443779 0.18341,1.27411 0.49998,2.650261 0.70332,3.058211 0.39217,0.78681 0.30358,2.06485 -0.31523,4.55011 l -0.32969,1.322917 -5.41053,0.07131 c -2.97593,0.03925 -5.49252,-0.01069 -5.59242,-0.110588 -0.0999,-0.09988 -0.1819,-1.289809 -0.1819,-2.644799 v -2.463933 l 1.76733,-1.457792 c 0.97198,-0.80172 1.81638,-1.408238 1.87638,-1.348238 0.06,0.06002 -0.14817,0.833398 -0.46251,1.718758 -0.31433,0.88535 -0.53361,1.87635 -0.48731,2.20245 0.0657,0.46244 0.42755,0.04015 1.64331,-1.920296 0.85731,-1.38245 1.82106,-2.930254 2.14199,-3.439584 1.61918,-2.56963 1.5885,-2.168468 0.53744,-7.011458 -0.22106,-1.01859 -0.40205,-2.10585 -0.40205,-2.41639 0,-0.63786 1.97737,-2.568405 2.466,-2.407605 z m -41.54888,5.091162 c 0.003,0.0056 0.006,0.01098 0.009,0.01654 0.15596,0.06799 0.27902,0.118163 0.18035,0.0677 -0.0614,-0.03143 -0.12612,-0.05607 -0.18913,-0.08423 z m 6.53758,1.648995 c 8.8e-4,0.0111 0.006,0.02383 0.008,0.03514 0.007,0.0018 0.0139,0.0023 0.0212,0.0041 -0.0104,-0.01343 -0.0171,-0.02585 -0.0274,-0.03927 z m 41.61917,3.151229 c 0.39135,0.01675 1.00433,1.795056 1.06298,3.619934 0.0429,1.33569 -0.0342,1.612011 -0.57464,2.050521 -0.82721,0.67118 -1.70442,0.640295 -2.55333,-0.08992 -0.57007,-0.49036 -0.74519,-0.962404 -0.98185,-2.648934 -0.1584,-1.12877 -0.19353,-2.140535 -0.0786,-2.247925 0.11519,-0.10734 0.25712,-0.06307 0.31522,0.09819 0.0581,0.16127 0.2502,0.490245 0.42685,0.730705 0.48993,0.66688 1.98757,0.03867 2.09445,-0.878499 0.0524,-0.449445 0.15842,-0.639654 0.28887,-0.63407 z m -1.05575,2.710945 c -0.34576,0.03436 -0.65913,0.264352 -0.7767,0.732772 -0.13693,0.54556 -0.0421,0.815608 0.41651,1.187008 0.73662,0.59647 1.60249,0.240305 1.60249,-0.658875 0,-0.83195 -0.66604,-1.318167 -1.2423,-1.260905 z m -40.96494,14.86731 c -0.1962,-0.01029 -0.39525,-0.0066 -0.59532,0.01189 -0.53351,0.04919 -1.07533,0.201899 -1.59628,0.467671 -1.6125,0.82263 -2.41814,3.273258 -2.04845,6.232177 0.21537,1.72378 1.01429,3.01399 2.26756,3.66386 1.81625,0.9418 4.03136,0.21289 5.15214,-1.69551 0.73922,-1.25862 0.74957,-4.925514 0.0186,-6.547914 -0.58382,-1.295825 -1.82485,-2.060162 -3.19825,-2.13217 z m 41.1055,0.04547 c -0.90756,0.04359 -1.66593,0.325762 -2.27066,0.845944 -0.63035,0.54216 -0.72864,0.822295 -0.72864,2.076875 0,1.795859 0.43517,2.336669 2.71146,3.368789 1.38384,0.62747 1.65416,0.85754 1.65416,1.40715 0,0.95649 -1.19854,1.16046 -2.76004,0.46974 -1.32329,-0.58536 -1.32896,-0.58277 -1.58078,0.81339 l -0.17673,0.98133 1.26659,0.38964 c 1.56367,0.48063 2.38335,0.51095 3.54242,0.13178 1.35293,-0.4426 2.08676,-1.45791 2.08876,-2.8882 0.002,-1.60677 -0.48943,-2.2145 -2.68097,-3.318146 -1.54023,-0.77565 -1.8354,-1.028676 -1.7663,-1.514636 0.10137,-0.71267 1.44235,-0.929468 2.65203,-0.428398 0.91297,0.37816 1.25649,0.07148 1.26349,-1.128613 0.004,-0.64212 -0.12985,-0.738467 -1.42059,-1.027327 -0.65139,-0.145774 -1.24967,-0.20547 -1.7942,-0.179318 z m -35.93993,0.195337 v 4.983151 c 0,2.74064 0.0797,5.06238 0.17674,5.15938 v 5.1e-4 c 0.097,0.097 1.46622,0.17622 3.0427,0.17622 h 2.86598 v -0.92604 -0.92604 l -1.25677,-0.004 c -2.15166,-0.006 -2.4873,-0.18669 -2.3952,-1.28777 l 0.0801,-0.95757 1.52136,-0.0791 1.52135,-0.0796 v -1.0449 -1.045411 h -1.603 -1.60352 l 0.0822,-0.992187 0.0816,-0.992188 1.78594,-0.07803 1.78594,-0.07803 V 96.80391 95.889754 h -3.04271 z m 7.67292,0 v 4.983151 c 0,2.74064 0.0797,5.06238 0.17673,5.15938 0.22586,0.2259 3.19703,0.23016 4.3186,0.005 1.18172,-0.23635 2.53526,-1.65808 2.77244,-2.91197 0.32785,-1.73321 0.18256,-4.065511 -0.31677,-5.082891 -0.80734,-1.64494 -1.89371,-2.15284 -4.60851,-2.15284 z m 8.99583,0 v 5.168151 5.16816 l 2.97657,-0.0744 2.97656,-0.0749 0.0832,-0.85989 0.0827,-0.85989 h -1.45004 c -2.04686,0 -2.28772,-0.14057 -2.28772,-1.33791 v -1.01699 l 1.52136,-0.0796 1.52135,-0.0791 v -0.92605 -0.926042 l -1.52135,-0.07958 -1.52136,-0.07958 v -1.044897 -1.045414 h 1.71979 1.7198 v -0.926042 -0.926042 h -2.91042 z m 7.67292,0 v 5.159371 5.15937 h 1.19062 1.19063 v -1.71979 c 0,-1.0102 0.11336,-1.71979 0.2744,-1.71979 0.15079,0 0.75931,0.77391 1.35237,1.71979 1.06062,1.69159 1.09763,1.71979 2.23966,1.71979 0.63859,0 1.16052,-0.0893 1.16014,-0.19843 -3.7e-4,-0.10914 -0.42932,-0.90951 -0.95343,-1.77871 -0.58961,-0.97783 -0.86693,-1.69493 -0.72709,-1.88102 1.09927,-1.46282 1.28416,-1.90339 1.28416,-3.056137 0,-1.37171 -0.64334,-2.503867 -1.74511,-3.070097 -0.3598,-0.1849 -1.64144,-0.328729 -2.95125,-0.330729 z m -13.59194,1.838648 c 0.20133,0.0012 0.45983,0.09318 0.79065,0.243912 1.39074,0.63366 1.83926,3.852641 0.76533,5.491661 -0.30247,0.46163 -0.65494,0.62787 -1.33118,0.62787 h -0.92036 v -3.05098 c 0,-2.501863 0.0916,-3.316038 0.69556,-3.312463 z m -16.0507,0.0088 c 0.75147,0.08417 1.40035,0.964358 1.53531,2.368843 0.16531,1.72046 -0.11017,3.09966 -0.74672,3.73621 -0.64346,0.64341 -1.08386,0.6488 -1.85829,0.0217 -0.54652,-0.44251 -0.61057,-0.72438 -0.62477,-2.75073 -0.0131,-1.862968 0.0724,-2.35464 0.48835,-2.8143 0.28411,-0.313958 0.58477,-0.491597 0.87901,-0.548287 0.11035,-0.02126 0.21976,-0.02546 0.32711,-0.01344 z m 32.7856,0.0047 c 0.41875,0 0.9186,0.189799 1.11104,0.421679 0.40392,0.48673 0.46953,2.114744 0.0987,2.454634 -0.35402,0.32452 -1.5942,0.58759 -1.79989,0.38189 -0.0944,-0.0944 -0.17157,-0.86628 -0.17157,-1.715145 0,-1.5239 0.01,-1.543058 0.76171,-1.543058 z m -42.08064,0.04496 c -0.5473,0.0775 -0.62647,0.249397 -0.69866,1.517737 -0.055,0.965676 0.031,1.500626 0.26458,1.647446 0.37384,0.23495 1.20348,0.0607 1.73478,-0.36432 0.51021,-0.4082 0.4017,-1.905783 -0.17622,-2.428793 -0.27904,-0.25253 -0.78506,-0.42014 -1.12448,-0.37207 z m 3.81579,1.33842 c -0.47811,-0.05387 -2.04588,2.563763 -3.22667,4.643123 0.16248,0.23756 0.32825,0.49662 0.48834,0.78652 l 0.91312,1.65364 h 1.28106 1.28106 l -0.52142,-0.99218 c -0.2868,-0.54571 -0.75679,-1.33882 -1.04438,-1.76269 l -0.52296,-0.77049 0.68213,-0.89452 c 0.43574,-0.57128 0.72398,-1.34355 0.79788,-2.139404 0.0326,-0.350894 -0.0169,-0.511468 -0.12816,-0.523999 z m -3.22667,4.643123 c -0.34728,-0.50772 -0.66904,-0.86713 -0.81546,-0.86713 -0.29456,0 -0.41036,0.40715 -0.46974,1.65365 l -0.0791,1.65364 c 0,0 0.6224,-1.13376 1.36426,-2.44016 z"
       transform="translate(-27.167148,105.8582)" /></g></svg>
